<?xml version="1.0" encoding="UTF-8" standalone="no"?>
<!DOCTYPE svg PUBLIC "-//W3C//DTD SVG 1.1//EN"
 "http://www.w3.org/Graphics/SVG/1.1/DTD/svg11.dtd">
<!-- Generated by graphviz version 2.47.0 (20210316.0004)
 -->
<!-- Title: dependencies Pages: 1 -->
<svg width="850pt" height="211pt"
 viewBox="0.00 0.00 850.00 211.00" xmlns="http://www.w3.org/2000/svg" xmlns:xlink="http://www.w3.org/1999/xlink">
<g id="graph0" class="graph" transform="scale(1 1) rotate(0) translate(4 207)">
<title>dependencies</title>
<polygon fill="white" stroke="transparent" points="-4,4 -4,-207 846,-207 846,4 -4,4"/>
<text text-anchor="start" x="400.01" y="-42.4" font-family="Times-12" font-weight="bold" font-size="14.00">Legend</text>
<polygon fill="#ffffb3" stroke="transparent" points="187,-10 187,-30 207,-30 207,-10 187,-10"/>
<text text-anchor="start" x="210.63" y="-15.4" font-family="Times-12" font-size="14.00"> &#160;Declarations</text>
<polygon fill="#8dd3c7" stroke="transparent" points="300,-10 300,-30 320,-30 320,-10 300,-10"/>
<text text-anchor="start" x="323.73" y="-15.4" font-family="Times-12" font-size="14.00"> &#160;Module</text>
<polygon fill="#80b1d3" stroke="transparent" points="386,-10 386,-30 406,-30 406,-10 386,-10"/>
<text text-anchor="start" x="409.78" y="-15.4" font-family="Times-12" font-size="14.00"> &#160;Bootstrap</text>
<polygon fill="#fdb462" stroke="transparent" points="483,-10 483,-30 503,-30 503,-10 483,-10"/>
<text text-anchor="start" x="506.67" y="-15.4" font-family="Times-12" font-size="14.00"> &#160;Providers</text>
<polygon fill="#fb8072" stroke="transparent" points="579,-10 579,-30 599,-30 599,-10 579,-10"/>
<text text-anchor="start" x="602.73" y="-15.4" font-family="Times-12" font-size="14.00"> &#160;Exports</text>
<g id="clust1" class="cluster">
<title>cluster_AppModule</title>
<polygon fill="none" stroke="black" stroke-dasharray="1,5" points="8,-70 8,-195 834,-195 834,-70 8,-70"/>
</g>
<g id="clust6" class="cluster">
<title>cluster_AppModule_providers</title>
<polygon fill="none" stroke="black" points="680,-78 680,-130 826,-130 826,-78 680,-78"/>
</g>
<g id="clust3" class="cluster">
<title>cluster_AppModule_imports</title>
<polygon fill="none" stroke="black" points="16,-78 16,-130 672,-130 672,-78 16,-78"/>
</g>
<!-- AuthModule -->
<g id="node1" class="node">
<title>AuthModule</title>
<polygon fill="#8dd3c7" stroke="black" points="663.55,-122 660.55,-126 639.55,-126 636.55,-122 576.45,-122 576.45,-86 663.55,-86 663.55,-122"/>
<text text-anchor="middle" x="620" y="-99.8" font-family="Times,serif" font-size="14.00">AuthModule</text>
</g>
<!-- AppModule -->
<g id="node7" class="node">
<title>AppModule</title>
<polygon fill="#8dd3c7" stroke="black" points="453.66,-187 450.66,-191 429.66,-191 426.66,-187 370.34,-187 370.34,-151 453.66,-151 453.66,-187"/>
<text text-anchor="middle" x="412" y="-164.8" font-family="Times,serif" font-size="14.00">AppModule</text>
</g>
<!-- AuthModule&#45;&gt;AppModule -->
<g id="edge1" class="edge">
<title>AuthModule&#45;&gt;AppModule</title>
<path fill="none" stroke="black" d="M620,-122.11C620,-141.34 620,-169 620,-169 620,-169 464.09,-169 464.09,-169"/>
<polygon fill="black" stroke="black" points="464.09,-165.5 454.09,-169 464.09,-172.5 464.09,-165.5"/>
</g>
<!-- MailModule -->
<g id="node2" class="node">
<title>MailModule</title>
<polygon fill="#8dd3c7" stroke="black" points="557.99,-122 554.99,-126 533.99,-126 530.99,-122 472.01,-122 472.01,-86 557.99,-86 557.99,-122"/>
<text text-anchor="middle" x="515" y="-99.8" font-family="Times,serif" font-size="14.00">MailModule</text>
</g>
<!-- MailModule&#45;&gt;AppModule -->
<g id="edge2" class="edge">
<title>MailModule&#45;&gt;AppModule</title>
<path fill="none" stroke="black" d="M515,-122.03C515,-138.4 515,-160 515,-160 515,-160 463.89,-160 463.89,-160"/>
<polygon fill="black" stroke="black" points="463.89,-156.5 453.89,-160 463.89,-163.5 463.89,-156.5"/>
</g>
<!-- PostModule -->
<g id="node3" class="node">
<title>PostModule</title>
<polygon fill="#8dd3c7" stroke="black" points="453.67,-122 450.67,-126 429.67,-126 426.67,-122 370.33,-122 370.33,-86 453.67,-86 453.67,-122"/>
<text text-anchor="middle" x="412" y="-99.8" font-family="Times,serif" font-size="14.00">PostModule</text>
</g>
<!-- PostModule&#45;&gt;AppModule -->
<g id="edge3" class="edge">
<title>PostModule&#45;&gt;AppModule</title>
<path fill="none" stroke="black" d="M412,-122.11C412,-122.11 412,-140.99 412,-140.99"/>
<polygon fill="black" stroke="black" points="408.5,-140.99 412,-150.99 415.5,-140.99 408.5,-140.99"/>
</g>
<!-- PrismaModule -->
<g id="node4" class="node">
<title>PrismaModule</title>
<polygon fill="#8dd3c7" stroke="black" points="352.43,-122 349.43,-126 328.43,-126 325.43,-122 253.57,-122 253.57,-86 352.43,-86 352.43,-122"/>
<text text-anchor="middle" x="303" y="-99.8" font-family="Times,serif" font-size="14.00">PrismaModule</text>
</g>
<!-- PrismaModule&#45;&gt;AppModule -->
<g id="edge4" class="edge">
<title>PrismaModule&#45;&gt;AppModule</title>
<path fill="none" stroke="black" d="M303,-122.03C303,-138.4 303,-160 303,-160 303,-160 360.17,-160 360.17,-160"/>
<polygon fill="black" stroke="black" points="360.17,-163.5 370.17,-160 360.17,-156.5 360.17,-163.5"/>
</g>
<!-- StorageModule -->
<g id="node5" class="node">
<title>StorageModule</title>
<polygon fill="#8dd3c7" stroke="black" points="236.31,-122 233.31,-126 212.31,-126 209.31,-122 133.69,-122 133.69,-86 236.31,-86 236.31,-122"/>
<text text-anchor="middle" x="185" y="-99.8" font-family="Times,serif" font-size="14.00">StorageModule</text>
</g>
<!-- StorageModule&#45;&gt;AppModule -->
<g id="edge5" class="edge">
<title>StorageModule&#45;&gt;AppModule</title>
<path fill="none" stroke="black" d="M185,-122.11C185,-141.34 185,-169 185,-169 185,-169 360.1,-169 360.1,-169"/>
<polygon fill="black" stroke="black" points="360.1,-172.5 370.1,-169 360.1,-165.5 360.1,-172.5"/>
</g>
<!-- UsersModule -->
<g id="node6" class="node">
<title>UsersModule</title>
<polygon fill="#8dd3c7" stroke="black" points="115.92,-122 112.92,-126 91.92,-126 88.92,-122 24.08,-122 24.08,-86 115.92,-86 115.92,-122"/>
<text text-anchor="middle" x="70" y="-99.8" font-family="Times,serif" font-size="14.00">UsersModule</text>
</g>
<!-- UsersModule&#45;&gt;AppModule -->
<g id="edge6" class="edge">
<title>UsersModule&#45;&gt;AppModule</title>
<path fill="none" stroke="black" d="M70,-122.29C70,-144.21 70,-178 70,-178 70,-178 360.06,-178 360.06,-178"/>
<polygon fill="black" stroke="black" points="360.06,-181.5 370.06,-178 360.06,-174.5 360.06,-181.5"/>
</g>
<!-- TaskSchedule -->
<g id="node8" class="node">
<title>TaskSchedule</title>
<ellipse fill="#fdb462" stroke="black" cx="753" cy="-104" rx="65.41" ry="18"/>
<text text-anchor="middle" x="753" y="-99.8" font-family="Times,serif" font-size="14.00">TaskSchedule</text>
</g>
<!-- TaskSchedule&#45;&gt;AppModule -->
<g id="edge7" class="edge">
<title>TaskSchedule&#45;&gt;AppModule</title>
<path fill="none" stroke="black" d="M753,-122.29C753,-144.21 753,-178 753,-178 753,-178 463.81,-178 463.81,-178"/>
<polygon fill="black" stroke="black" points="463.81,-174.5 453.81,-178 463.81,-181.5 463.81,-174.5"/>
</g>
</g>
</svg>
